<svg xmlns="http://www.w3.org/2000/svg" version="1.1" xmlns:xlink="http://www.w3.org/1999/xlink" xmlns:svgjs="http://svgjs.com/svgjs" width="1440" height="700" preserveAspectRatio="none" viewBox="0 0 1440 700"><g mask="url(&quot;#SvgjsMask1150&quot;)" fill="none"><rect width="1440" height="700" x="0" y="0" fill="url(#SvgjsLinearGradient1151)"></rect><path d="M347 85L43 389" stroke-width="6" stroke="url(#SvgjsLinearGradient1152)" stroke-linecap="round" class="TopRight"></path><path d="M466 455L196 725" stroke-width="10" stroke="url(#SvgjsLinearGradient1153)" stroke-linecap="round" class="BottomLeft"></path><path d="M1224 78L1508 -206" stroke-width="8" stroke="url(#SvgjsLinearGradient1152)" stroke-linecap="round" class="TopRight"></path><path d="M264 582L-6 852" stroke-width="6" stroke="url(#SvgjsLinearGradient1152)" stroke-linecap="round" class="TopRight"></path><path d="M562 256L1042 -224" stroke-width="6" stroke="url(#SvgjsLinearGradient1152)" stroke-linecap="round" class="TopRight"></path><path d="M220 539L-9 768" stroke-width="10" stroke="url(#SvgjsLinearGradient1152)" stroke-linecap="round" class="TopRight"></path><path d="M46 183L522 -293" stroke-width="10" stroke="url(#SvgjsLinearGradient1153)" stroke-linecap="round" class="BottomLeft"></path><path d="M1202 311L1719 -206" stroke-width="6" stroke="url(#SvgjsLinearGradient1152)" stroke-linecap="round" class="TopRight"></path><path d="M1171 94L1631 -366" stroke-width="6" stroke="url(#SvgjsLinearGradient1153)" stroke-linecap="round" class="BottomLeft"></path><path d="M145 390L-280 815" stroke-width="10" stroke="url(#SvgjsLinearGradient1153)" stroke-linecap="round" class="BottomLeft"></path><path d="M305 156L485 -24" stroke-width="6" stroke="url(#SvgjsLinearGradient1152)" stroke-linecap="round" class="TopRight"></path><path d="M700 71L983 -212" stroke-width="10" stroke="url(#SvgjsLinearGradient1152)" stroke-linecap="round" class="TopRight"></path><path d="M1196 145L1717 -376" stroke-width="10" stroke="url(#SvgjsLinearGradient1153)" stroke-linecap="round" class="BottomLeft"></path><path d="M1189 594L953 830" stroke-width="10" stroke="url(#SvgjsLinearGradient1153)" stroke-linecap="round" class="BottomLeft"></path><path d="M1434 180L1749 -135" stroke-width="8" stroke="url(#SvgjsLinearGradient1153)" stroke-linecap="round" class="BottomLeft"></path><path d="M849 349L1297 -99" stroke-width="10" stroke="url(#SvgjsLinearGradient1152)" stroke-linecap="round" class="TopRight"></path><path d="M879 421L1392 -92" stroke-width="8" stroke="url(#SvgjsLinearGradient1152)" stroke-linecap="round" class="TopRight"></path><path d="M218 213L-193 624" stroke-width="6" stroke="url(#SvgjsLinearGradient1152)" stroke-linecap="round" class="TopRight"></path><path d="M162 189L660 -309" stroke-width="8" stroke="url(#SvgjsLinearGradient1153)" stroke-linecap="round" class="BottomLeft"></path><path d="M1383 507L1101 789" stroke-width="10" stroke="url(#SvgjsLinearGradient1152)" stroke-linecap="round" class="TopRight"></path><path d="M1384 44L1094 334" stroke-width="8" stroke="url(#SvgjsLinearGradient1153)" stroke-linecap="round" class="BottomLeft"></path><path d="M10 183L-399 592" stroke-width="6" stroke="url(#SvgjsLinearGradient1153)" stroke-linecap="round" class="BottomLeft"></path><path d="M328 507L136 699" stroke-width="6" stroke="url(#SvgjsLinearGradient1152)" stroke-linecap="round" class="TopRight"></path><path d="M190 24L-6 220" stroke-width="8" stroke="url(#SvgjsLinearGradient1153)" stroke-linecap="round" class="BottomLeft"></path><path d="M85 445L-387 917" stroke-width="6" stroke="url(#SvgjsLinearGradient1153)" stroke-linecap="round" class="BottomLeft"></path><path d="M608 508L903 213" stroke-width="6" stroke="url(#SvgjsLinearGradient1152)" stroke-linecap="round" class="TopRight"></path><path d="M1326 424L1652 98" stroke-width="8" stroke="url(#SvgjsLinearGradient1153)" stroke-linecap="round" class="BottomLeft"></path><path d="M139 317L446 10" stroke-width="6" stroke="url(#SvgjsLinearGradient1153)" stroke-linecap="round" class="BottomLeft"></path><path d="M639 25L412 252" stroke-width="8" stroke="url(#SvgjsLinearGradient1153)" stroke-linecap="round" class="BottomLeft"></path><path d="M383 221L-30 634" stroke-width="6" stroke="url(#SvgjsLinearGradient1153)" stroke-linecap="round" class="BottomLeft"></path><path d="M188 669L-156 1013" stroke-width="6" stroke="url(#SvgjsLinearGradient1153)" stroke-linecap="round" class="BottomLeft"></path><path d="M287 276L-12 575" stroke-width="10" stroke="url(#SvgjsLinearGradient1153)" stroke-linecap="round" class="BottomLeft"></path><path d="M761 634L538 857" stroke-width="10" stroke="url(#SvgjsLinearGradient1153)" stroke-linecap="round" class="BottomLeft"></path><path d="M282 605L806 81" stroke-width="10" stroke="url(#SvgjsLinearGradient1152)" stroke-linecap="round" class="TopRight"></path><path d="M660 553L1040 173" stroke-width="8" stroke="url(#SvgjsLinearGradient1153)" stroke-linecap="round" class="BottomLeft"></path><path d="M902 125L694 333" stroke-width="6" stroke="url(#SvgjsLinearGradient1153)" stroke-linecap="round" class="BottomLeft"></path><path d="M748 80L1008 -180" stroke-width="6" stroke="url(#SvgjsLinearGradient1152)" stroke-linecap="round" class="TopRight"></path><path d="M569 38L51 556" stroke-width="6" stroke="url(#SvgjsLinearGradient1153)" stroke-linecap="round" class="BottomLeft"></path><path d="M249 467L-175 891" stroke-width="8" stroke="url(#SvgjsLinearGradient1153)" stroke-linecap="round" class="BottomLeft"></path><path d="M477 218L138 557" stroke-width="10" stroke="url(#SvgjsLinearGradient1152)" stroke-linecap="round" class="TopRight"></path><path d="M1428 124L1161 391" stroke-width="6" stroke="url(#SvgjsLinearGradient1153)" stroke-linecap="round" class="BottomLeft"></path></g><defs><mask id="SvgjsMask1150"><rect width="1440" height="700" fill="#ffffff"></rect></mask><linearGradient x1="12.85%" y1="-26.43%" x2="87.15%" y2="126.43%" gradientUnits="userSpaceOnUse" id="SvgjsLinearGradient1151"><stop stop-color="#0e2a47" offset="0"></stop><stop stop-color="rgba(0, 69, 158, 1)" offset="1"></stop></linearGradient><linearGradient x1="0%" y1="100%" x2="100%" y2="0%" id="SvgjsLinearGradient1152"><stop stop-color="rgba(28, 83, 142, 0)" offset="0"></stop><stop stop-color="#1c538e" offset="1"></stop></linearGradient><linearGradient x1="100%" y1="0%" x2="0%" y2="100%" id="SvgjsLinearGradient1153"><stop stop-color="rgba(28, 83, 142, 0)" offset="0"></stop><stop stop-color="#1c538e" offset="1"></stop></linearGradient></defs></svg>