<svg id="visual" viewBox="0 0 900 675" width="900" height="675" xmlns="http://www.w3.org/2000/svg" xmlns:xlink="http://www.w3.org/1999/xlink" version="1.1"><rect x="0" y="0" width="900" height="675" fill="#FFFFFF"></rect><defs><linearGradient id="grad1_0" x1="25%" y1="100%" x2="100%" y2="0%"><stop offset="23.333333333333336%" stop-color="#ffffff" stop-opacity="1"></stop><stop offset="76.66666666666666%" stop-color="#ffffff" stop-opacity="1"></stop></linearGradient></defs><defs><linearGradient id="grad2_0" x1="0%" y1="100%" x2="75%" y2="0%"><stop offset="23.333333333333336%" stop-color="#ffffff" stop-opacity="1"></stop><stop offset="76.66666666666666%" stop-color="#ffffff" stop-opacity="1"></stop></linearGradient></defs><g transform="translate(900, 675)"><path d="M-393.7 0C-378.9 -46.5 -364 -93 -348.3 -144.3C-332.6 -195.5 -316.2 -251.4 -278.4 -278.4C-240.7 -305.4 -181.6 -303.4 -131.6 -317.8C-81.7 -332.2 -40.8 -363 0 -393.7L0 0Z" fill="#74b6c7"></path></g><g transform="translate(0, 0)"><path d="M393.8 0C391.8 54.2 389.9 108.4 363.8 150.7C337.7 192.9 287.5 223.2 244 244C200.4 264.7 163.5 276 124 299.3C84.4 322.7 42.2 358.2 0 393.8L0 0Z" fill="#74b6c7"></path></g></svg>